<?xml version="1.0" encoding="UTF-8" standalone="no"?>
<!DOCTYPE svg PUBLIC "-//W3C//DTD SVG 1.1//EN" "http://www.w3.org/Graphics/SVG/1.1/DTD/svg11.dtd">
<svg xmlns="http://www.w3.org/2000/svg" version="1.1" viewBox="0 0 302 300" width="302.0pt" height="300.0pt">
<path d="M 0.00 0.00 L 135.42 0.00 C 135.08 0.82 134.27 1.21 133.00 1.16 C 121.27 3.83 112.77 15.83 114.21 28.00 C 114.87 39.76 124.57 49.34 136.00 50.91 C 139.16 50.80 143.09 51.43 146.00 50.07 C 156.17 47.25 164.28 37.65 164.30 27.00 C 164.88 18.91 161.58 11.72 155.64 6.37 C 151.81 3.97 148.63 1.28 144.06 0.80 L 144.06 0.00 L 302.00 0.00 L 302.00 300.00 L 0.00 300.00 L 0.00 0.00 Z" fill="#ffffff" />
<path d="M 135.42 0.00 L 144.06 0.00 L 144.06 0.80 C 148.63 1.28 151.81 3.97 155.64 6.37 C 161.58 11.72 164.88 18.91 164.30 27.00 C 164.28 37.65 156.17 47.25 146.00 50.07 C 143.09 51.43 139.16 50.80 136.00 50.91 C 124.57 49.34 114.87 39.76 114.21 28.00 C 112.77 15.83 121.27 3.83 133.00 1.16 C 134.27 1.21 135.08 0.82 135.42 0.00 Z" fill="#afd2f7" />
<path d="M 204.09 7.72 C 212.03 9.05 219.56 14.66 222.92 22.00 C 224.65 26.26 226.53 33.17 224.45 37.44 C 224.22 44.05 219.42 50.42 214.00 53.94 C 207.63 58.74 198.35 59.20 191.00 56.67 C 184.83 53.91 178.93 48.85 176.68 42.22 C 172.12 31.17 176.26 17.77 186.56 11.56 C 191.36 8.21 198.39 6.34 204.09 7.72 Z" fill="#90b4db" />
<path d="M 86.41 18.56 C 94.05 20.04 100.49 26.10 103.68 33.07 C 106.43 40.00 106.29 48.41 102.71 55.00 C 99.47 60.71 94.40 65.22 88.00 67.13 C 76.54 71.09 62.62 65.20 57.71 54.07 C 54.49 47.61 54.14 38.98 57.57 32.56 C 61.70 21.75 75.42 15.22 86.41 18.56 Z" fill="#9fbfe1" />
<path d="M 252.00 48.59 C 261.02 50.16 268.64 56.59 271.58 65.26 C 273.78 69.59 272.84 75.84 272.54 80.55 C 271.62 81.85 271.09 83.56 270.25 85.00 C 267.29 91.43 260.85 96.50 254.00 98.13 C 243.99 100.95 232.78 96.58 227.03 88.00 C 221.47 80.64 221.25 69.46 225.46 61.44 C 228.57 56.68 232.08 52.58 237.57 50.55 C 242.32 47.89 246.82 48.70 252.00 48.59 Z" fill="#6f96c1" />
<path d="M 47.33 68.55 C 57.84 71.29 65.94 81.10 66.05 92.00 C 66.61 100.46 62.07 109.29 54.93 113.85 C 48.25 118.76 39.04 119.39 31.41 116.55 C 25.66 114.02 19.94 109.05 17.77 103.00 C 17.82 100.90 16.12 100.45 16.63 98.00 C 15.13 95.42 15.63 92.94 15.69 90.00 C 16.71 88.48 16.74 87.86 16.63 86.00 C 18.12 83.70 17.84 81.31 19.77 78.87 C 22.73 74.95 27.45 70.09 32.55 69.56 C 33.78 68.17 35.01 68.82 36.57 68.57 C 39.12 66.66 44.40 67.76 47.33 68.55 Z" fill="#a5f0c6" />
<path d="M 264.00 106.22 C 268.69 105.25 274.20 105.21 278.85 106.39 C 283.40 108.13 288.05 111.00 290.97 115.00 C 295.80 120.94 297.39 129.33 295.57 136.70 C 293.90 144.71 286.69 153.06 278.44 154.46 C 277.53 155.20 276.39 155.52 275.00 155.42 C 272.83 156.08 269.69 156.45 267.55 155.46 C 258.54 154.64 250.55 148.14 247.45 139.57 C 246.25 137.35 247.09 135.13 245.94 133.00 C 245.16 129.50 246.64 127.28 246.76 124.00 C 248.86 115.41 255.66 108.87 264.00 106.22 Z" fill="#608571" />
<path d="M 47.45 142.55 C 51.05 148.09 51.41 154.15 50.54 160.58 C 49.54 161.10 49.17 161.91 49.42 163.00 C 47.96 165.00 48.46 166.77 46.78 168.89 C 43.38 174.25 36.91 179.21 30.43 179.46 C 28.29 180.99 24.51 180.41 22.00 180.17 C 20.15 178.87 18.27 179.85 16.32 178.58 C 10.66 176.46 6.09 172.21 3.29 166.88 C 0.44 162.33 0.49 157.19 0.61 152.00 C 1.47 142.14 9.30 133.03 18.91 130.67 C 29.72 127.53 42.22 132.50 47.45 142.55 Z" fill="#6ba083" />
<path d="M 271.82 171.37 C 275.57 173.60 279.15 175.26 281.78 179.12 C 282.86 180.69 284.49 182.56 284.46 184.54 C 285.54 186.16 287.06 188.97 286.95 191.00 C 287.58 196.20 287.10 202.61 283.93 206.96 C 280.06 214.91 270.84 220.47 262.00 220.19 C 252.58 220.47 243.28 214.41 239.27 205.89 C 236.09 200.10 236.53 193.77 237.46 187.45 C 238.57 185.58 239.20 183.33 240.54 181.55 C 242.80 176.93 247.63 173.55 252.15 171.36 C 258.13 168.87 265.83 168.98 271.82 171.37 Z" fill="#527060" />
<path d="M 44.07 193.24 C 47.75 191.84 49.57 193.79 53.00 193.68 C 58.82 195.05 64.11 198.57 67.44 203.57 C 74.36 212.65 73.61 226.54 65.86 234.93 C 58.91 243.27 47.12 245.49 37.18 241.67 C 31.20 239.13 24.52 233.11 23.54 226.46 C 21.11 221.89 20.95 214.87 23.16 210.06 C 25.57 202.15 32.01 196.14 40.00 193.87 C 41.29 193.34 42.97 193.96 44.07 193.24 Z" fill="#b67534" />
<path d="M 218.46 221.46 C 221.50 221.36 224.52 221.33 227.56 221.46 C 229.60 222.49 232.14 222.69 234.10 223.75 C 237.96 225.37 241.55 228.53 243.92 232.00 C 244.28 234.49 246.88 234.37 246.79 237.00 C 249.07 243.24 249.00 249.75 246.93 256.00 C 246.84 257.12 246.35 257.94 245.46 258.45 C 243.46 263.94 238.25 267.95 233.00 270.20 C 231.85 270.20 231.03 270.65 230.55 271.54 C 227.64 271.58 224.88 272.41 222.00 272.13 C 220.15 271.89 218.31 271.62 216.44 271.54 C 215.97 270.64 215.15 270.22 214.00 270.26 C 207.06 267.62 201.98 261.78 199.39 255.00 C 197.50 250.48 198.23 245.28 198.46 240.45 C 199.16 239.68 199.49 238.68 199.46 237.45 C 200.15 237.04 200.56 236.56 200.69 236.00 C 202.64 231.29 206.42 226.99 211.04 225.04 C 213.11 222.91 216.46 223.01 218.46 221.46 Z" fill="#704b25" />
<path d="M 92.23 235.41 C 99.62 233.85 107.39 234.75 113.45 239.54 C 117.48 242.12 120.45 246.56 122.28 250.91 C 126.64 261.58 122.45 274.36 113.00 280.86 C 110.23 282.54 106.76 284.65 103.43 284.46 C 99.72 286.62 94.35 284.60 90.46 284.54 C 88.85 283.48 85.31 281.70 83.65 280.37 C 79.15 277.35 76.62 272.68 74.41 268.00 C 73.49 263.96 73.42 260.12 73.67 256.00 C 74.88 246.47 82.86 237.82 92.23 235.41 Z" fill="#da8835" />
<path d="M 168.00 244.59 C 174.55 245.61 180.76 250.33 184.12 256.00 C 185.59 258.34 186.26 261.04 187.54 263.43 C 187.74 267.66 188.47 272.99 186.60 276.86 C 183.97 285.36 176.66 292.09 168.00 293.96 C 164.30 294.55 160.70 294.48 157.00 293.95 C 148.06 291.94 140.65 284.81 138.14 276.00 C 137.18 270.03 136.96 262.36 140.32 257.12 C 143.97 250.28 151.59 244.32 159.56 244.55 C 163.05 242.16 164.73 245.15 168.00 244.59 Z" fill="#d29f6a" />
</svg>